<?xml version="1.0" encoding="UTF-8" standalone="no"?>
<svg
   xmlns:dc="http://purl.org/dc/elements/1.1/"
   xmlns:cc="http://creativecommons.org/ns#"
   xmlns:rdf="http://www.w3.org/1999/02/22-rdf-syntax-ns#"
   xmlns:svg="http://www.w3.org/2000/svg"
   xmlns="http://www.w3.org/2000/svg"
   xmlns:sodipodi="http://sodipodi.sourceforge.net/DTD/sodipodi-0.dtd"
   xmlns:inkscape="http://www.inkscape.org/namespaces/inkscape"
   id="Layer_1"
   data-name="Layer 1"
   width="220"
   height="98.021217"
   viewBox="0 0 220 98.021219"
   version="1.1"
   sodipodi:docname="fotc_logo.svg"
   inkscape:version="0.92.4 (5da689c313, 2019-01-14)">
  <metadata
     id="metadata1126">
    <rdf:RDF>
      <cc:Work
         rdf:about="">
        <dc:format>image/svg+xml</dc:format>
        <dc:type
           rdf:resource="http://purl.org/dc/dcmitype/StillImage" />
        <dc:title>fotc_logo_3</dc:title>
      </cc:Work>
    </rdf:RDF>
  </metadata>
  <sodipodi:namedview
     pagecolor="#ffffff"
     bordercolor="#666666"
     borderopacity="1"
     objecttolerance="10"
     gridtolerance="10"
     guidetolerance="10"
     inkscape:pageopacity="0"
     inkscape:pageshadow="2"
     inkscape:window-width="2880"
     inkscape:window-height="1706"
     id="namedview1124"
     showgrid="false"
     fit-margin-top="5"
     fit-margin-left="10"
     fit-margin-right="11"
     fit-margin-bottom="5"
     inkscape:zoom="7.2407734"
     inkscape:cx="146.2084"
     inkscape:cy="54.4974"
     inkscape:window-x="-11"
     inkscape:window-y="-11"
     inkscape:window-maximized="1"
     inkscape:current-layer="Layer_1"
     units="px"
     scale-x="1.8" />
  <defs
     id="defs1035">
    <style
       id="style1033">.cls-1{fill:#0ae;}.cls-2{fill:#555;}</style>
  </defs>
  <title
     id="title1037">fotc_logo_3</title>
  <g
     id="g1001"
     transform="matrix(0.54709878,0,0,0.54709878,3.1612654,1.5806326)">
    <path
       style="fill:#00aaee"
       inkscape:connector-curvature="0"
       id="path1039"
       d="m 15.744865,160.57578 v -21.08 h 7.53 q 3.72,0 5.55,1.55 a 5.83,5.83 0 0 1 1.83,4.71 6,6 0 0 1 -1.78,4.69 7.54,7.54 0 0 1 -5.21,1.61 h -3.91 v 8.52 z m 4,-11.87 h 2.95 a 5.25,5.25 0 0 0 3.08,-0.68 3.36,3.36 0 0 0 0,-4.57 5.25,5.25 0 0 0 -3.08,-0.68 h -2.94 z"
       class="cls-1" />
    <path
       style="fill:#00aaee"
       inkscape:connector-curvature="0"
       id="path1041"
       d="m 31.544865,152.97578 a 8.87,8.87 0 0 1 1.72,-5.8 5.85,5.85 0 0 1 4.8,-2.07 5.85,5.85 0 0 1 4.78,2.09 10.61,10.61 0 0 1 0,11.6 5.86,5.86 0 0 1 -4.78,2.07 5.85,5.85 0 0 1 -4.77,-2.1 8.85,8.85 0 0 1 -1.75,-5.79 z m 3.63,0 a 7.15,7.15 0 0 0 0.72,3.62 2.54,2.54 0 0 0 4.31,0 9.52,9.52 0 0 0 0,-7.22 2.57,2.57 0 0 0 -4.33,0 7.1,7.1 0 0 0 -0.7,3.6 z"
       class="cls-1" />
    <path
       style="fill:#00aaee"
       inkscape:connector-curvature="0"
       id="path1043"
       d="m 47.294865,160.57578 v -15.19 h 3.43 v 2.52 a 6.07,6.07 0 0 1 1.69,-2.09 3.42,3.42 0 0 1 2.08,-0.7 h 0.29 0.18 v 3.74 h -0.17 a 4.11,4.11 0 0 0 -2.21,0.62 4.65,4.65 0 0 0 -1.63,1.76 v 9.3 z"
       class="cls-1" />
    <path
       style="fill:#00aaee"
       inkscape:connector-curvature="0"
       id="path1045"
       d="m 61.854865,156.01578 a 2.25,2.25 0 0 0 0.31,1.44 1.57,1.57 0 0 0 1.16,0.33 h 0.72 l 0.76,-0.08 v 3 a 11.7,11.7 0 0 1 -1.37,0.2 q -0.77,0.07 -1.62,0.07 a 3.08,3.08 0 0 1 -3.57,-3.57 v -9 h -2 v -3 h 2 v -4.87 h 3.6 v 4.87 h 3 v 3 h -3 z"
       class="cls-1" />
    <path
       style="fill:#00aaee"
       inkscape:connector-curvature="0"
       id="path1047"
       d="m 67.214865,160.57578 v -21.08 h 3.6 v 21.08 z"
       class="cls-1" />
    <path
       style="fill:#00aaee"
       inkscape:connector-curvature="0"
       id="path1049"
       d="m 82.524865,160.57578 -0.31,-1.33 a 7.92,7.92 0 0 1 -2.15,1.13 7.48,7.48 0 0 1 -2.36,0.38 4,4 0 0 1 -3,-1.08 4,4 0 0 1 -1.08,-3 4.53,4.53 0 0 1 2.09,-3.93 15.09,15.09 0 0 1 6.54,-2 v -1.19 a 1.56,1.56 0 0 0 -0.56,-1.29 2.47,2.47 0 0 0 -1.59,-0.45 4,4 0 0 0 -1.88,0.44 4.08,4.08 0 0 0 -1.45,1.3 l -2.44,-1.54 a 6.18,6.18 0 0 1 2.41,-2.22 7.43,7.43 0 0 1 3.41,-0.74 6.37,6.37 0 0 1 4.11,1.19 4,4 0 0 1 1.47,3.31 v 8.94 a 7.89,7.89 0 0 0 0.06,0.86 q 0.06,0.5 0.17,1.2 z m -0.4,-7.39 a 9.59,9.59 0 0 0 -3.78,1.13 2.38,2.38 0 0 0 -1.19,2.09 1.48,1.48 0 0 0 1.63,1.63 3.85,3.85 0 0 0 1.68,-0.4 6.43,6.43 0 0 0 1.66,-1.2 z"
       class="cls-1" />
    <path
       style="fill:#00aaee"
       inkscape:connector-curvature="0"
       id="path1051"
       d="m 89.464865,160.57578 v -15.19 h 3.31 v 1.8 a 11.67,11.67 0 0 1 2.48,-1.62 5.37,5.37 0 0 1 2.2,-0.47 4,4 0 0 1 3.190005,1.25 5.54,5.54 0 0 1 1.07,3.7 v 10.55 h -3.600005 v -9.86 a 4.06,4.06 0 0 0 -0.4,-2.09 1.46,1.46 0 0 0 -1.33,-0.62 3.63,3.63 0 0 0 -1.62,0.41 7.52,7.52 0 0 0 -1.7,1.27 v 10.88 z"
       class="cls-1" />
    <path
       style="fill:#00aaee"
       inkscape:connector-curvature="0"
       id="path1053"
       d="m 114.48487,158.95578 a 5.22,5.22 0 0 1 -1.81,1.44 5.33,5.33 0 0 1 -2.29001,0.47 5.15,5.15 0 0 1 -4.32,-2.2 9.17,9.17 0 0 1 -1.66,-5.69 9.33,9.33 0 0 1 1.66,-5.71 5,5 0 0 1 4.18,-2.18 4.73,4.73 0 0 1 2,0.41 5.23,5.23 0 0 1 1.69001,1.33 v -7.33 h 3.51 v 17.54 q 0,0.55 0,1.44 0,0.89 0.13,2.1 h -2.71 z m -0.52,-2.41 v -7.22 a 5.88,5.88 0 0 0 -1.38,-1 3,3 0 0 0 -1.31001,-0.3 2.66,2.66 0 0 0 -2.35,1.3 6.6,6.6 0 0 0 -0.85,3.63 6.45,6.45 0 0 0 0.85,3.6 2.71,2.71 0 0 0 2.38,1.27 3,3 0 0 0 1.32001,-0.3 5.21,5.21 0 0 0 1.34,-0.98 z"
       class="cls-1" />
    <path
       style="fill:#00aaee"
       inkscape:connector-curvature="0"
       id="path1055"
       d="m 136.15487,143.28578 h 2.41 v 7.46 h 7.28 v 2.36 h -7.28 v 7.48 h -2.41 v -7.48 h -7.28 v -2.35 h 7.28 z"
       class="cls-1" />
    <path
       style="fill:#00aaee"
       inkscape:connector-curvature="0"
       id="path1057"
       d="m 156.06487,155.82578 3.6,-1.6 a 6.77,6.77 0 0 0 1.86,2.46 4.45,4.45 0 0 0 4.94,0 2.35,2.35 0 0 0 0.92,-2 2.19,2.19 0 0 0 -0.68,-1.64 7.27,7.27 0 0 0 -2.45,-1.31 l -0.69,-0.25 a 23.61,23.61 0 0 1 -4.32,-1.93 5.21,5.21 0 0 1 -1.84,-2 5.61,5.61 0 0 1 -0.64,-2.69 5.14,5.14 0 0 1 1.9,-4.14 7.5,7.5 0 0 1 5,-1.59 8.08,8.08 0 0 1 4.48,1.16 6.68,6.68 0 0 1 2.63,3.44 l -3.6,1.32 a 5.13,5.13 0 0 0 -1.57,-2.06 3.76,3.76 0 0 0 -2.24,-0.64 3.14,3.14 0 0 0 -2,0.6 2,2 0 0 0 -0.74,1.64 q 0,1.6 3.64,3 l 1.76,0.71 a 10.86,10.86 0 0 1 4.14,2.63 5.38,5.38 0 0 1 1.1,3.51 5.78,5.78 0 0 1 -1.91,4.59 7.71,7.71 0 0 1 -5.25,1.67 9,9 0 0 1 -4.92,-1.27 7.86,7.86 0 0 1 -3.12,-3.61 z"
       class="cls-1" />
    <path
       style="fill:#00aaee"
       inkscape:connector-curvature="0"
       id="path1059"
       d="m 178.15487,160.57578 -5.42,-21.08 h 3.88 l 3,12.12 q 0.17,0.69 0.39,1.91 0.22,1.22 0.45,2.8 a 23.07,23.07 0 0 1 0.71,-4 l 0.14,-0.59 3.07,-12.23 h 3.4 l 2.92,12.12 q 0.17,0.69 0.39,1.91 0.22,1.22 0.46,2.82 0.08,-1 0.28,-2.17 0.2,-1.17 0.52,-2.44 l 3.07,-12.23 h 3.89 l -5.42,21.08 h -4.39 l -2.63,-10.55 q -0.35,-1.49 -0.57,-2.61 a 21.06,21.06 0 0 1 -0.3,-2.1 q -0.2,1.46 -0.41,2.65 -0.21,1.19 -0.41,2 l -2.69,10.62 z"
       class="cls-1" />
    <path
       style="fill:#00aaee"
       inkscape:connector-curvature="0"
       id="path1061"
       d="m 214.32487,160.57578 -5.42,-21.08 h 3.88 l 3,12.12 q 0.17,0.69 0.39,1.91 0.22,1.22 0.45,2.8 a 23.07,23.07 0 0 1 0.71,-4 l 0.14,-0.59 3.07,-12.23 h 3.4 l 2.92,12.12 q 0.17,0.69 0.39,1.91 0.22,1.22 0.46,2.82 0.08,-1 0.28,-2.17 0.2,-1.17 0.52,-2.44 l 3.07,-12.23 h 3.89 l -5.41,21.06 h -4.39 l -2.61,-10.55 q -0.35,-1.49 -0.57,-2.61 a 21.06,21.06 0 0 1 -0.3,-2.1 q -0.2,1.46 -0.41,2.65 -0.21,1.19 -0.41,2 l -2.69,10.62 z"
       class="cls-1" />
    <path
       style="fill:#00aaee"
       inkscape:connector-curvature="0"
       id="path1063"
       d="m 244.21487,160.57578 -0.31,-1.33 a 7.91,7.91 0 0 1 -2.17,1.13 7.48,7.48 0 0 1 -2.37,0.38 4,4 0 0 1 -3,-1.08 4,4 0 0 1 -1.08,-3 4.53,4.53 0 0 1 2.09,-3.93 15.1,15.1 0 0 1 6.54,-2 v -1.19 a 1.56,1.56 0 0 0 -0.56,-1.29 2.47,2.47 0 0 0 -1.59,-0.45 4,4 0 0 0 -1.88,0.44 4.08,4.08 0 0 0 -1.45,1.3 l -2.44,-1.54 a 6.18,6.18 0 0 1 2.41,-2.22 7.42,7.42 0 0 1 3.41,-0.74 6.37,6.37 0 0 1 4.11,1.19 4,4 0 0 1 1.47,3.31 v 8.94 a 8,8 0 0 0 0.06,0.86 q 0.06,0.5 0.17,1.2 z m -0.4,-7.39 a 9.58,9.58 0 0 0 -3.78,1.13 2.38,2.38 0 0 0 -1.19,2.09 1.48,1.48 0 0 0 1.63,1.63 3.85,3.85 0 0 0 1.68,-0.4 6.42,6.42 0 0 0 1.66,-1.2 z"
       class="cls-1" />
    <path
       style="fill:#00aaee"
       inkscape:connector-curvature="0"
       id="path1065"
       d="m 249.90487,157.81578 2.44,-1.91 a 6.84,6.84 0 0 0 1.71,1.65 3.29,3.29 0 0 0 1.77,0.53 2.41,2.41 0 0 0 1.54,-0.45 1.5,1.5 0 0 0 0.57,-1.23 q 0,-1.15 -2.39,-2 l -0.38,-0.16 a 10.79,10.79 0 0 1 -3.8,-2.08 3.62,3.62 0 0 1 -1,-2.61 4,4 0 0 1 1.45,-3.2 5.59,5.59 0 0 1 3.77,-1.25 6.76,6.76 0 0 1 2.81,0.57 7,7 0 0 1 2.31,1.76 l -2.27,2 a 5.58,5.58 0 0 0 -1.46,-1.15 3.23,3.23 0 0 0 -1.49,-0.38 2.25,2.25 0 0 0 -1.42,0.4 1.32,1.32 0 0 0 -0.52,1.1 q 0,0.85 2.39,1.74 l 1,0.38 a 8.27,8.27 0 0 1 3.3,2 4.18,4.18 0 0 1 0.88,2.78 4.3,4.3 0 0 1 -1.45,3.39 5.62,5.62 0 0 1 -3.86,1.28 7.08,7.08 0 0 1 -3.31,-0.74 7.93,7.93 0 0 1 -2.59,-2.42 z"
       class="cls-1" />
    <path
       style="fill:#00aaee"
       inkscape:connector-curvature="0"
       id="path1067"
       d="m 263.93487,160.57578 v -21.08 h 3.57 v 7.61 a 9,9 0 0 1 2.24,-1.51 5.41,5.41 0 0 1 2.22,-0.47 4,4 0 0 1 3.17,1.24 5.56,5.56 0 0 1 1.06,3.7 v 10.55 h -3.55 v -9.86 a 3.88,3.88 0 0 0 -0.42,-2.08 1.51,1.51 0 0 0 -1.35,-0.62 3.59,3.59 0 0 0 -1.61,0.41 7.83,7.83 0 0 0 -1.76,1.27 v 10.88 z"
       class="cls-1" />
    <path
       style="fill:#00aaee"
       inkscape:connector-curvature="0"
       id="path1069"
       d="m 279.93487,142.89578 v -3.4 h 3.6 v 3.4 z m 0,17.69 v -15.2 h 3.6 v 15.19 z"
       class="cls-1" />
    <path
       style="fill:#00aaee"
       inkscape:connector-curvature="0"
       id="path1071"
       d="m 287.33487,160.57578 v -15.19 h 3.31 v 1.8 a 11.64,11.64 0 0 1 2.48,-1.62 5.38,5.38 0 0 1 2.2,-0.47 4,4 0 0 1 3.19,1.25 5.54,5.54 0 0 1 1.07,3.7 v 10.55 h -3.6 v -9.86 a 4.05,4.05 0 0 0 -0.4,-2.09 1.46,1.46 0 0 0 -1.33,-0.62 3.64,3.64 0 0 0 -1.62,0.41 7.53,7.53 0 0 0 -1.75,1.27 v 10.88 z"
       class="cls-1" />
    <path
       style="fill:#00aaee"
       inkscape:connector-curvature="0"
       id="path1073"
       d="m 304.52487,159.50578 a 4.84,4.84 0 0 1 -1.55,-1.06 1.88,1.88 0 0 1 -0.45,-1.26 2.49,2.49 0 0 1 0.59,-1.56 4.93,4.93 0 0 1 1.68,-1.3 4.26,4.26 0 0 1 -1.59,-1.64 4.88,4.88 0 0 1 -0.54,-2.34 4.93,4.93 0 0 1 1.6,-3.82 5.94,5.94 0 0 1 4.18,-1.47 6.19,6.19 0 0 1 2,0.31 6.53,6.53 0 0 1 1.8,1 3.76,3.76 0 0 1 1.25,-1.08 3.29,3.29 0 0 1 1.54,-0.36 h 0.31 0.2 v 2.66 h -0.07 a 6.07,6.07 0 0 0 -0.62,-0.06 2.58,2.58 0 0 0 -0.72,0.09 2.25,2.25 0 0 0 -0.61,0.29 3.43,3.43 0 0 1 0.54,1.2 6.45,6.45 0 0 1 0.17,1.56 4.41,4.41 0 0 1 -1.53,3.53 6.17,6.17 0 0 1 -4.15,1.31 7.42,7.42 0 0 1 -0.89,0 6.68,6.68 0 0 1 -0.77,-0.13 2.25,2.25 0 0 0 -0.74,0.45 0.78,0.78 0 0 0 -0.25,0.57 q 0,0.86 2.92,1 l 1.09,0.08 a 9.11,9.11 0 0 1 4.4,1.1 3.3,3.3 0 0 1 1.16,2.84 3.93,3.93 0 0 1 -1.83,3.49 12.31,12.31 0 0 1 -10.1,0.25 3.1,3.1 0 0 1 -1.64,-2.83 2.36,2.36 0 0 1 0.62,-1.68 4.75,4.75 0 0 1 2,-1.14 z m 2.32,0.75 a 4.19,4.19 0 0 0 -1.18,0.77 1.17,1.17 0 0 0 -0.36,0.83 1.38,1.38 0 0 0 0.76,1.25 4.33,4.33 0 0 0 2.15,0.46 6.69,6.69 0 0 0 2.88,-0.52 1.55,1.55 0 0 0 1.07,-1.37 1,1 0 0 0 -0.47,-0.88 3.36,3.36 0 0 0 -1.55,-0.33 z m -0.78,-9.88 a 2.32,2.32 0 0 0 0.65,1.75 2.5,2.5 0 0 0 1.81,0.63 2.44,2.44 0 0 0 1.78,-0.67 2.37,2.37 0 0 0 0.68,-1.77 2.4,2.4 0 0 0 -0.71,-1.81 2.53,2.53 0 0 0 -1.84,-0.69 2.25,2.25 0 0 0 -1.73,0.7 2.61,2.61 0 0 0 -0.64,1.85 z"
       class="cls-1" />
    <path
       style="fill:#00aaee"
       inkscape:connector-curvature="0"
       id="path1075"
       d="m 322.68487,156.01578 a 2.25,2.25 0 0 0 0.31,1.44 1.57,1.57 0 0 0 1.16,0.33 h 0.72 l 0.76,-0.08 v 3 a 11.69,11.69 0 0 1 -1.37,0.2 q -0.77,0.07 -1.62,0.07 a 3.08,3.08 0 0 1 -3.57,-3.57 v -9 h -2 v -3 h 2 v -4.87 h 3.6 v 4.87 h 3 v 3 h -3 z"
       class="cls-1" />
    <path
       style="fill:#00aaee"
       inkscape:connector-curvature="0"
       id="path1077"
       d="m 326.94487,152.97578 a 8.87,8.87 0 0 1 1.72,-5.8 6.51,6.51 0 0 1 9.56,0 10.61,10.61 0 0 1 0,11.6 6.49,6.49 0 0 1 -9.54,0 8.84,8.84 0 0 1 -1.74,-5.8 z m 3.63,0 a 7.15,7.15 0 0 0 0.72,3.62 2.54,2.54 0 0 0 4.31,0 9.51,9.51 0 0 0 0,-7.22 2.57,2.57 0 0 0 -4.33,0 7.1,7.1 0 0 0 -0.71,3.6 z"
       class="cls-1" />
    <path
       style="fill:#00aaee"
       inkscape:connector-curvature="0"
       id="path1079"
       d="m 342.65487,160.57578 v -15.19 h 3.31 v 1.8 a 11.64,11.64 0 0 1 2.48,-1.62 5.38,5.38 0 0 1 2.2,-0.47 4,4 0 0 1 3.19,1.25 5.54,5.54 0 0 1 1.07,3.7 v 10.55 h -3.6 v -9.86 a 4.05,4.05 0 0 0 -0.4,-2.09 1.46,1.46 0 0 0 -1.33,-0.62 3.64,3.64 0 0 0 -1.62,0.41 7.53,7.53 0 0 0 -1.75,1.27 v 10.88 z"
       class="cls-1" />
    <path
       style="fill:#555555"
       inkscape:connector-curvature="0"
       id="path1081"
       d="m 223.68487,14.265783 a 8.68,8.68 0 0 0 -2.85,6.66 8.09,8.09 0 0 0 2.85,6.29 q 2.29,2 7.61,3.42 3.9,1 5,2.17 a 3.61,3.61 0 0 1 1.11,2.61 3.81,3.81 0 0 1 -1.4,2.93 5.67,5.67 0 0 1 -3.9,1.24 6.68,6.68 0 0 1 -3.62,-1 11,11 0 0 1 -3.12,-3.4 l -5.6,2.19 a 15.68,15.68 0 0 0 2.19,3.31 12.17,12.17 0 0 0 4.11,2.99 15.13,15.13 0 0 0 11.81,-0.22 9,9 0 0 0 4,-3.75 10,10 0 0 0 1.35,-4.85 10.14,10.14 0 0 0 -1,-4.46 8.6,8.6 0 0 0 -3.17,-3.52 21.47,21.47 0 0 0 -6.22,-2.37 q -4.11,-1 -5.13,-2 a 3,3 0 0 1 -1,-2.29 3.74,3.74 0 0 1 1.26,-2.84 4.72,4.72 0 0 1 3.37,-1.18 5.72,5.72 0 0 1 3.1,0.87 10,10 0 0 1 2.63,2.78 l 5.25,-2.15 a 13,13 0 0 0 -2,-2.69 12.41,12.41 0 0 0 -3.76,-2.43 12.75,12.75 0 0 0 -5.05,-0.95 11.11,11.11 0 0 0 -7.84,2.64"
       class="cls-2" />
    <path
       style="fill:#555555"
       inkscape:connector-curvature="0"
       id="path1083"
       d="m 258.43487,39.845783 a 7.49,7.49 0 0 1 -1,-4.49 q 0,-3.44 1.16,-5 a 2.81,2.81 0 0 1 2.39,-1.18 2.93,2.93 0 0 1 1.84,0.65 4.09,4.09 0 0 1 1.28,2 9.64,9.64 0 0 1 0.44,3 12.73,12.73 0 0 1 -0.53,3.83 3.63,3.63 0 0 1 -1.21,1.87 3,3 0 0 1 -1.86,0.65 3.06,3.06 0 0 1 -2.49,-1.34 m -3.39,-11.25 a 9.55,9.55 0 0 0 -2.15,6.68 q 0,4.57 2.4,6.88 a 7.86,7.86 0 0 0 5.64,2.31 7.39,7.39 0 0 0 5.65,-2.44 9.59,9.59 0 0 0 2.26,-6.78 9.25,9.25 0 0 0 -2.24,-6.65 8.12,8.12 0 0 0 -6.16,-2.34 7,7 0 0 0 -5.4,2.34"
       class="cls-2" />
    <path
       style="fill:#555555"
       inkscape:connector-curvature="0"
       id="path1085"
       d="m 280.24487,19.105783 a 7.48,7.48 0 0 0 -2.37,0.38 4.53,4.53 0 0 0 -1.78,1 4.81,4.81 0 0 0 -1.26,2.08 17,17 0 0 0 -0.54,4 h -2 v 3.2 h 2 v 14.34 h 4.47 v -14.37 h 2.66 v -3.2 h -2.66 v -2.53 a 1.67,1.67 0 0 1 0.56,-1.32 2.84,2.84 0 0 1 1.86,-0.48 h 0.74 v -3.1 h -1.69"
       class="cls-2" />
    <path
       style="fill:#555555"
       inkscape:connector-curvature="0"
       id="path1087"
       d="m 292.76487,20.855783 v 5.68 h -2.7 v 3.2 h 2.7 v 9.37 a 5.81,5.81 0 0 0 0.74,2.92 4.23,4.23 0 0 0 2,1.84 8.18,8.18 0 0 0 3.3,0.55 h 1.57 v -3.63 a 5.11,5.11 0 0 1 -2.54,-0.47 1.4,1.4 0 0 1 -0.55,-1.18 v -9.4 h 3.1 v -3.2 h -3.1 v -5.68 h -4.52"
       class="cls-2" />
    <path
       style="fill:#555555"
       inkscape:connector-curvature="0"
       id="path1089"
       d="m 304.91487,19.105783 v 25 h 4.46 v -12.06 a 12.53,12.53 0 0 1 2.28,-1.66 4,4 0 0 1 1.82,-0.55 1.47,1.47 0 0 1 1.15,0.48 2.14,2.14 0 0 1 0.43,1.47 v 12.32 h 4.46 v -13.4 a 5,5 0 0 0 -1.21,-3.47 3.4,3.4 0 0 0 -2.71,-1 7.78,7.78 0 0 0 -3.09,0.67 12.17,12.17 0 0 0 -3.13,2 v -9.8 h -4.46"
       class="cls-2" />
    <path
       style="fill:#555555"
       inkscape:connector-curvature="0"
       id="path1091"
       d="m 329.19487,30.325783 a 3.21,3.21 0 0 1 2.43,-1.06 3.38,3.38 0 0 1 2.54,1.08 4.65,4.65 0 0 1 1.13,3.1 h -7.23 a 4.89,4.89 0 0 1 1.12,-3.12 m -3.5,-1.68 a 9,9 0 0 0 -2.3,6.48 10.86,10.86 0 0 0 1.07,4.85 7.48,7.48 0 0 0 3.08,3.31 8.46,8.46 0 0 0 4.24,1.14 8.21,8.21 0 0 0 2.2,-0.29 7.72,7.72 0 0 0 2,-0.91 7.62,7.62 0 0 0 1.79,-1.57 10.28,10.28 0 0 0 1.13,-1.76 l -3.63,-1.53 a 5.1,5.1 0 0 1 -1.45,1.83 3.56,3.56 0 0 1 -4.64,-0.54 5.52,5.52 0 0 1 -1.11,-3.55 h 11.17 c 0,-0.67 0,-1.17 0,-1.52 a 8.55,8.55 0 0 0 -2.11,-6.16 7.44,7.44 0 0 0 -5.62,-2.2 7.77,7.77 0 0 0 -5.89,2.41"
       class="cls-2" />
    <polygon
       transform="translate(10.064866,10.105783)"
       style="fill:#555555"
       id="polygon1093"
       points="22.43,21.32 22.43,15.81 10.51,15.81 10.51,7.48 28.04,7.48 28.04,1.98 4.2,1.98 4.2,33.87 10.51,33.87 10.51,21.32 "
       class="cls-2" />
    <path
       style="fill:#555555"
       inkscape:connector-curvature="0"
       id="path1095"
       d="m 53.424865,17.825783 h 5 a 7.07,7.07 0 0 1 4.54,1.18 3.68,3.68 0 0 1 1.42,2.95 3.54,3.54 0 0 1 -1.27,2.9 7.21,7.21 0 0 1 -4.69,1.56 h -5 v -8.59 m -6.3,-5.57 v 31.85 h 6.3 v -12.78 h 5.74 l 5.35,12.78 h 6.22 l -5.74,-14 a 10.26,10.26 0 0 0 4.63,-3.2 7.92,7.92 0 0 0 1.33,-4.72 10.27,10.27 0 0 0 -1.48,-5.5 8.28,8.28 0 0 0 -4.14,-3.44 q -2.65,-1 -9.6,-1 h -8.6"
       class="cls-2" />
    <polygon
       transform="translate(10.064866,10.105783)"
       style="fill:#555555"
       id="polygon1097"
       points="110.85,28.54 110.85,19.45 120.06,19.45 120.06,14.72 110.85,14.72 110.85,7.69 125.96,7.69 125.96,2.15 104.57,2.15 104.57,34.04 125.96,34.04 125.96,28.54 "
       class="cls-2" />
    <polygon
       transform="translate(10.064866,10.105783)"
       style="fill:#555555"
       id="polygon1099"
       points="137.43,34.04 143.71,34.04 143.71,11.8 157.15,34.04 163.36,34.04 163.36,2.15 157.15,2.15 157.15,23.55 144.06,2.15 137.43,2.15 "
       class="cls-2" />
    <path
       style="fill:#555555"
       inkscape:connector-curvature="0"
       id="path1101"
       d="m 192.44487,17.635783 h 3.07 a 9.21,9.21 0 0 1 6.9,2.76 10.15,10.15 0 0 1 2.65,7.39 14,14 0 0 1 -1.39,6.32 8.25,8.25 0 0 1 -2.78,3.26 7.1,7.1 0 0 1 -4.12,1.24 h -4.33 v -20.97 m -6.38,-5.38 v 31.85 h 10.57 a 17.59,17.59 0 0 0 5.54,-0.86 12.68,12.68 0 0 0 4.27,-2.26 14.41,14.41 0 0 0 3.76,-5.39 19.4,19.4 0 0 0 1.47,-7.7 18.83,18.83 0 0 0 -1.69,-8 12.9,12.9 0 0 0 -5,-5.69 13.75,13.75 0 0 0 -7.38,-2 h -11.54"
       class="cls-2" />
    <path
       style="fill:#555555"
       inkscape:connector-curvature="0"
       id="path1103"
       d="m 19.384865,77.235783 a 12.62,12.62 0 0 0 -5.12,6 22.44,22.44 0 0 0 -1.76,9.17 20.05,20.05 0 0 0 1.73,8.599997 11.89,11.89 0 0 0 5.06,5.51 14.26,14.26 0 0 0 7,1.84 12.21,12.21 0 0 0 6.07,-1.45 11.9,11.9 0 0 0 4.26,-4 14.48,14.48 0 0 0 1.69,-4.269997 l -5.77,-1.64 a 8.62,8.62 0 0 1 -2.29,3.779997 6.71,6.71 0 0 1 -4.68,1.9 5.16,5.16 0 0 1 -3.25,-1.18 7.74,7.74 0 0 1 -2.36,-3.649997 17.59,17.59 0 0 1 -0.9,-5.74 16.84,16.84 0 0 1 1.86,-8.44 5.73,5.73 0 0 1 5.19,-3.23 5.82,5.82 0 0 1 3.83,1.32 7.08,7.08 0 0 1 2.22,3.91 l 5.9,-1.71 a 11.93,11.93 0 0 0 -1.9,-4.08 11.46,11.46 0 0 0 -4.32,-3.42 12.64,12.64 0 0 0 -5.35,-1.21 13.62,13.62 0 0 0 -7.06,2"
       class="cls-2" />
    <polygon
       transform="translate(10.064866,10.105783)"
       style="fill:#555555"
       id="polygon1105"
       points="36.43,65.77 36.43,97.63 42.67,97.63 42.67,83.85 54.21,83.85 54.21,97.63 60.51,97.63 60.51,65.77 54.21,65.77 54.21,78.35 42.67,78.35 42.67,65.77 "
       class="cls-2" />
    <polygon
       transform="translate(10.064866,10.105783)"
       style="fill:#555555"
       id="polygon1107"
       points="110.81,92.13 110.81,65.77 104.58,65.77 104.58,97.63 123.98,97.63 123.98,92.13 "
       class="cls-2" />
    <path
       style="fill:#555555"
       inkscape:connector-curvature="0"
       id="path1109"
       d="m 150.87487,81.245783 h 3.07 a 9.21,9.21 0 0 1 6.9,2.76 10.14,10.14 0 0 1 2.69,7.39 13.94,13.94 0 0 1 -1.47,6.26 8.28,8.28 0 0 1 -2.78,3.259997 7.09,7.09 0 0 1 -4.07,1.19 h -4.34 V 81.245783 m -6.36,-5.38 v 31.869997 h 10.55 a 17.59,17.59 0 0 0 5.55,-0.86 12.69,12.69 0 0 0 4.27,-2.26 14.36,14.36 0 0 0 3.76,-5.389997 19.24,19.24 0 0 0 1.47,-7.68 18.77,18.77 0 0 0 -1.7,-8 12.82,12.82 0 0 0 -5,-5.69 13.73,13.73 0 0 0 -7.38,-2 h -11.52"
       class="cls-2" />
    <path
       style="fill:#555555"
       inkscape:connector-curvature="0"
       id="path1111"
       d="m 186.66487,81.435783 h 5 a 7.07,7.07 0 0 1 4.54,1.18 3.67,3.67 0 0 1 1.42,2.95 3.54,3.54 0 0 1 -1.27,2.9 7.22,7.22 0 0 1 -4.69,1.56 h -5 v -8.59 m -6.3,-5.56 v 31.859997 h 6.3 V 94.935783 h 5.74 l 5.35,12.799997 h 6.22 l -5.74,-13.999997 a 10.26,10.26 0 0 0 4.63,-3.2 7.92,7.92 0 0 0 1.33,-4.72 10.27,10.27 0 0 0 -1.48,-5.5 8.29,8.29 0 0 0 -4.14,-3.44 q -2.66,-1 -9.6,-1 h -8.61"
       class="cls-2" />
    <polygon
       transform="translate(10.064866,10.105783)"
       style="fill:#555555"
       id="polygon1113"
       points="211.43,92.13 211.43,83.06 220.64,83.06 220.64,78.33 211.43,78.33 211.43,71.31 226.54,71.31 226.54,65.77 205.15,65.77 205.15,97.63 226.54,97.63 226.54,92.13 "
       class="cls-2" />
    <polygon
       transform="translate(10.064866,10.105783)"
       style="fill:#555555"
       id="polygon1115"
       points="236.72,97.63 243,97.63 243,75.42 256.44,97.63 262.65,97.63 262.65,65.77 256.44,65.77 256.44,87.16 243.35,65.77 236.72,65.77 "
       class="cls-2" />
    <path
       style="fill:#00aaee"
       inkscape:connector-curvature="0"
       id="path1117"
       d="m 90.854865,12.255783 a 45.53,45.53 0 0 1 -4,2.23 24.57,24.57 0 0 1 -4.19,1.36 v 5.07 c 3,-0.25 4.89,-1.27 7.23,-2.16 v 19.89 h -7.27 v 5.46 h 19.860005 v -5.5 h -6.310005 v -26.35 z"
       class="cls-1" />
    <path
       style="fill:#00aaee"
       inkscape:connector-curvature="0"
       id="path1119"
       d="m 90.854865,75.855783 a 45.25,45.25 0 0 1 -4,2.23 24.47,24.47 0 0 1 -4.19,1.36 v 5.07 c 3,-0.25 4.89,-1.27 7.23,-2.16 v 19.889997 h -7.27 v 5.5 h 19.860005 v -5.5 H 96.174865 V 75.855783 Z"
       class="cls-1" />
    <polygon
       transform="translate(10.064866,10.105783)"
       style="fill:#00aaee"
       id="polygon1121"
       points="60.5,47.09 60.5,52.59 104.57,52.59 104.58,47.08 "
       class="cls-1" />
    <rect
       y="6.25"
       x="372.63687"
       height="160.88725"
       width="3.5999999"
       id="rect1128"
       style="opacity:1;fill:#00aaee;fill-opacity:1;stroke:none;stroke-width:0.82780349" />
  </g>
</svg>
